<?xml version="1.0" standalone="no"?>
<!DOCTYPE svg PUBLIC "-//W3C//DTD SVG 20010904//EN"
 "http://www.w3.org/TR/2001/REC-SVG-20010904/DTD/svg10.dtd">
<svg version="1.0" xmlns="http://www.w3.org/2000/svg"
 width="1024.000000pt" height="1024.000000pt" viewBox="0 0 1024.000000 1024.000000"
 preserveAspectRatio="xMidYMid meet">
<metadata>
Created by potrace 1.11, written by Peter Selinger 2001-2013
</metadata>
<g transform="translate(0.000000,1024.000000) scale(0.100000,-0.100000)"
fill="#000000" stroke="none">
<path d="M4380 10219 c-558 -84 -1060 -241 -1548 -484 -522 -260 -944 -564
-1352 -974 -730 -734 -1218 -1667 -1405 -2686 -66 -358 -70 -417 -70 -955 0
-538 4 -597 70 -955 231 -1259 929 -2393 1947 -3160 693 -523 1499 -859 2363
-985 129 -18 189 -20 745 -20 556 0 616 2 745 20 549 80 1063 240 1553 485
522 260 944 564 1352 974 783 787 1276 1779 1439 2896 19 129 21 187 21 745 0
659 -1 680 -66 1015 -237 1227 -936 2346 -1936 3100 -693 523 -1499 859 -2363
985 -129 18 -186 20 -755 19 -549 -1 -629 -3 -740 -20z m2730 -617 c0 -4 -13
-29 -28 -57 -16 -27 -33 -59 -39 -70 -6 -11 -25 -49 -42 -85 -17 -36 -35 -72
-40 -80 -5 -8 -24 -46 -41 -85 -17 -38 -37 -77 -44 -85 -8 -8 -17 -26 -21 -40
-6 -20 -161 -338 -203 -415 -6 -11 -58 -117 -116 -235 -58 -118 -112 -226
-119 -240 -8 -14 -35 -70 -62 -125 -27 -55 -54 -106 -59 -114 -6 -7 -11 -18
-12 -25 -1 -9 -287 -589 -321 -651 -6 -11 -21 -45 -34 -75 -13 -30 -33 -68
-44 -85 -12 -16 -27 -46 -35 -65 -7 -19 -114 -237 -237 -484 -122 -247 -221
-451 -220 -453 2 -1 399 -3 883 -3 483 0 885 -4 893 -9 10 -7 5 -21 -26 -67
-22 -33 -57 -88 -78 -124 -21 -36 -53 -87 -70 -115 -17 -27 -62 -99 -100 -160
-66 -107 -131 -212 -204 -327 -41 -65 -68 -108 -216 -348 -124 -202 -168 -272
-211 -338 -17 -26 -53 -83 -79 -127 -27 -44 -72 -116 -100 -160 -29 -44 -65
-102 -80 -130 -15 -27 -33 -57 -39 -65 -13 -15 -114 -178 -239 -383 -38 -62
-93 -149 -123 -194 -30 -46 -54 -86 -54 -89 0 -3 -10 -20 -22 -37 -13 -18 -31
-48 -42 -67 -10 -19 -30 -49 -43 -67 -14 -18 -33 -47 -42 -65 -17 -32 -40 -69
-205 -331 -45 -70 -101 -161 -126 -202 -25 -42 -81 -132 -125 -201 -44 -69
-86 -137 -94 -152 -14 -27 -156 -255 -217 -347 -32 -49 -127 -203 -223 -361
-27 -44 -73 -118 -104 -165 -30 -46 -72 -113 -94 -149 -143 -234 -178 -290
-204 -327 -16 -23 -29 -44 -29 -47 0 -3 -29 -52 -65 -108 -35 -57 -86 -138
-112 -180 -30 -47 -55 -77 -65 -78 -19 0 -25 29 -9 46 5 5 21 57 35 116 14 58
34 132 45 165 11 32 31 107 46 166 14 60 33 127 41 150 9 23 33 111 54 194 22
84 44 161 49 172 6 10 22 67 36 127 14 60 36 143 50 184 13 41 41 136 61 210
20 74 54 196 74 270 162 581 220 791 270 972 22 81 44 158 50 170 5 13 21 70
35 128 14 58 37 141 50 185 14 44 41 139 60 210 20 72 53 194 75 272 22 79 57
208 79 287 21 79 48 172 59 207 25 75 56 209 50 214 -2 3 -366 5 -809 5 -470
1 -810 5 -819 10 -13 8 -13 16 3 62 10 29 27 71 37 93 10 22 34 81 53 130 89
232 125 323 139 350 8 17 23 55 33 85 10 30 28 78 41 105 13 28 39 91 58 140
89 234 127 329 135 339 4 6 19 43 31 81 12 39 33 93 46 121 13 28 33 75 43
105 22 62 73 188 136 339 24 58 47 116 50 130 7 24 22 60 51 125 15 34 91 229
125 320 12 33 36 92 54 130 17 39 35 84 39 100 4 17 20 59 36 95 16 36 54 130
85 210 31 80 70 179 87 220 17 41 45 113 63 160 44 115 111 283 139 350 13 30
27 66 31 80 7 23 27 73 60 146 8 17 29 71 46 120 17 49 39 105 49 124 10 19
29 67 43 105 14 39 35 94 48 123 l23 52 1003 0 c552 0 1003 -4 1003 -8z"/>
</g>
</svg>
